<?xml version="1.0" encoding="UTF-8"?>
<svg version="1.1" viewBox="0 0 2048 2048" width="700" height="700" xmlns="http://www.w3.org/2000/svg">
<path transform="translate(0)" d="m0 0h2048v2048h-2048z" fill="#FDFCFC"/>
<path transform="translate(2027,1132)" d="m0 0h11l2 22 1 47v832l-1 14-105-1-75-1-79-2-31-1-31-2-7-2h-96l-5 3-15 1-34 1-6 1-47 1-17 1-2-4-2-25-6-2-18-2-19-1h-15l-17 10-15 12-12 9-93 1-244 1-631 1h-151l-47-1-17-1-1-1v-35l-1-98-1-66-1-32-16-8-9-6-7-8-2-6v-5l5-1 171-2 117-3 4-16 9-30 1-2h-32l-56-2-8-1-1-1-13-90-8-63-9-82-2-36v-30l40-1 70-1 41-1 314-1 3 2 4 30 4 37 1 23 33-11 41-15 38-15 16-4 11 44 8 27 3 12v9l-12 5-64 16-34 7-20 3h-12l5 57 3 49v27l-5 2-12 1-50 1-81 1-81 2-2 9-5 17v5l22 2 30 3 2 7 6 2 35 2 96 1 192-1h297l1 1v24l-1 4-10 3-22 3-1 1-1 42-1 78-1 22 16-10 15-10 15-9 16-9h2l-4-16-5-17v-28l1-3 9 2 19 7 26 10 30 10 14 4 30 9 46 11 40 9 42 7 15 2 10 2 36 5 16 1 4-10 6-17 6-13 7-20 11-23 19-52 15-40 8-19 8-15 14-15 6-5 2-4 6-4 9-11 9-10 8-10 12-13 12-14 10-13 12-13 4-6h2l2-4 10-11 9-11 12-14 8-10 10-12 9-11 8-10 30-39 9-12 12-15 13-18 4-6-2-4-26-26-6-4-4 2-24 32-14 19-16 21-14 19-13 17-12 16-10 13-11 9-12 21-6 11-9 10-10 13-13 16-11 13-5 6-1 3-5 2-9 11-8 10-7 9-8 9-4-1-4-5-6-18-8-28-4-19-3-19v-17l13 3 7 3h13l2-5 3-7 1-15-5-8-7-4h-12l-14 1-2-6 2-29 2-24v-20l-55-9-26-5-44-11-11-4-11-3-9-4-22-10-17-10-16-11-10-9-11-11-7-5-9-13-9-15-8-19-4-12-3-18v-43l10-39 2-2 24-3 4-1 19-1 17-2 35-4 47-6 53-6 54-6 38-5 42-5 70-9 24-3 21-2 87-11 49-6z" fill="#876239"/>
<path transform="translate(0,1019)" d="m0 0 5 2 4 10 1 8 2 6 2 13 4 16 1 9 1 1 2 10 4 19 3 18 1 1 1 9 2 6 1 9 2 6 1 9 2 6 1 9 1 1 1 9 2 9 3 15 3 13 2 10 2 14 1 2 2 15 2 10 3 9 1 7 2 5 3 13h11l72-8 15-1 1-1 61-7 14-1 2-1 103-12 14-1 3-1 14-1 11-2 14-1 12-2 14-1 11-2 26-3 13-1 12-2 23-2 12-2 14-1 2-1 128-15 14-1 12-2 25-3 14-1 3-1 14-1 12-2 25-3 13-1 21-3 76-9 14-1 2-1 23-2 2-1 147-17 14-1 11-2 61-7 14-1 2-1 35-4 14-1 2-1 77-9 16-1 2-1 55-5 35-5 12-1 11-2 14-1 2-1 60-7 14-1 1-1 24-2 2-1 182-21 15-1 3-1 14-1 11-2 88-10 14-1 2-1 24-2 2-1 36-4 13-1 13-2 44-5h16l3 12-2 84v307l-1 445h-1l-1-558v-180l-1-48-1-6v-15l-54 6-102 13-25 3-19 2-66 8-30 4-48 6-52 6-62 7-73 9-27 3-16 2-19 1-15 2-13 2-3 8-8 32v43l4 21 8 22 8 15 10 15 4 5 8 6 15 15 16 11 15 9 16 8 11 5 15 6 13 4 18 5 25 6 23 5 57 9 6 2v20l-4 51 1 7 14-1h12l8 5 5 8-1 15-6 12-13 1-10-4-10-3 1 17 3 19 6 27 8 27 5 13 3 3 4-1 7-8 8-10 10-13 7-8h4l1-4 13-15 11-14 13-16 9-11 5-8 8-15 7-11 11-9 16-21 12-16 16-21 14-19 16-21 10-14 10-13 9-12 4-2 9 7 26 26-2 5-10 14-10 13-12 15-8 11-7 9-20 26-26 32-11 13-9 11-13 15-9 11h-2l-2 4-9 11-9 10-8 10-12 14-12 13-8 10-18 21-4 1-2 5-13 12-8 10-11 23-26 70-12 32-8 17-4 10-5 14-6 13-9 26-2 2-16-1-24-3-19-3-10-2-44-7-34-7-29-7-40-10-21-7-15-4-35-12-26-10-20-7v31l6 20 2 7v6l-22 12-22 14-10 7-8 5h-2v-22l1-78 1-42 2-2 27-4 5-1v-28h-297l-211 1-77-1-35-2-7-3-1-7-17-1-28-2-7-1-1-1 1-8 6-20 1-3 2-1 79-2 81-1 50-1 16-2v-27l-4-61-3-32v-13l26-3 36-7 64-16 10-3 6-2-2-13-7-25-5-17-8-32v-5l-24 8-38 15-42 15-21 7h-3l-1-5-2-28-6-52-1-5-2-1-314 1-41 1-70 1h-40l2 53 4 42 9 78 8 59 10 69 8 1 88 3-3 12-10 34-1 2-9 1-62 2-46 1-175 2 1 9 4 6 7 6 17 9 5 3 1 32 1 66 1 109v25l-1 1-19 1-41 1-142-1z" fill="#F16964"/>
<path transform="translate(2027,1132)" d="m0 0h11l2 22 1 47v832l-1 14-105-1-75-1-79-2-31-1-31-2-7-2h-96l-5 3-15 1-34 1-6 1-47 1-17 1-2-4-2-25-6-2-18-2-33-2 4-4 24-16 19-10 25-11 16-5 18-3 34-3 30-4 18-5 6-3h3l4-18 3-5 8-23 6-13 7-20 11-23 19-52 15-40 8-19 8-15 14-15 6-5 2-4 6-4 9-11 9-10 8-10 12-13 12-14 10-13 12-13 4-6h2l2-4 10-11 9-11 12-14 8-10 10-12 9-11 8-10 30-39 9-12 12-15 13-18 4-6-2-4-26-26-6-4-4 2-24 32-14 19-16 21-14 19-13 17-12 16-10 13-11 9-12 21-6 11-9 10-10 13-13 16-11 13-5 6-1 3-5 2-9 11-8 10-7 9-8 9-4-1-4-5-6-18-8-28-4-19-3-19v-17l13 3 7 3h13l2-5 3-7 1-15-5-8-7-4h-12l-14 1-2-6 2-29 2-24v-20l-55-9-26-5-44-11-11-4-11-3-9-4-22-10-17-10-16-11-10-9-11-11-7-5-9-13-9-15-8-19-4-12-3-18v-43l10-39 2-2 24-3 4-1 19-1 17-2 35-4 47-6 53-6 54-6 38-5 42-5 70-9 24-3 21-2 87-11 49-6z" fill="#F16964"/>
<path transform="translate(131,829)" d="m0 0h484l378 1 16 1v318l-1 1-66 1h-806l-7-2v-79l1-25 4-8 3-1 2-5 7-8 4-1 1-5 4-7 9-12 4-2v-10l-5-10-10-14-13-17-9-11z" fill="#F16964"/>
<path transform="translate(1329,1240)" d="m0 0h10l2 7 2 29 1 32 2 33 1 31 2 24 1 23 1 6 2 38 2 18v30l6-16 7-15 11-23 10-19 8-16 12-16 7-9 9-11 11-13 3-4 6 1 18 18 16 11 15 9 16 8 11 5 15 6 13 4 18 5 25 6 23 5 57 9 6 2v20l-4 51 1 7 14-1h12l8 5 5 8-1 15-6 12-13 1-10-4-10-3 1 17 3 19 6 27 8 27 5 13 3 3 4-1 7-8 8-10 10-13 7-8h4l1-4 13-15 11-14 13-16 9-11 5-8 8-15 7-11 11-9 16-21 12-16 16-21 14-19 16-21 10-14 10-13 9-12 4-2 9 7 26 26-2 5-10 14-10 13-12 15-8 11-7 9-20 26-26 32-11 13-9 11-13 15-9 11h-2l-2 4-9 11-9 10-8 10-12 14-12 13-8 10-18 21-4 1-2 5-13 12-8 10-11 23-26 70-12 32-8 17-4 10-5 14-6 13-9 26-2 2-16-1-24-3-19-3-10-2-44-7-34-7-29-7-40-10-21-7-15-4-35-12-26-10-17-6-2-2 1-14 8-61 2-15 2-8 2-19 2-13 3-22 4-32 1-19v-24l-9-51-6-42-9-73-6-64-5-82-1-31v-30l16-4z" fill="#FDFCFC"/>
<path transform="translate(801,1416)" d="m0 0h7l3 2 4 30 4 37 1 23 33-11 41-15 38-15 16-4 11 44 8 27 3 12v9l-12 5-64 16-34 7-20 3h-12l5 57 3 49v27l-5 2-12 1-50 1-81 1-81 2-2 9-5 17v5l22 2 30 3-1 5-1 1h-30l-4-1v2l-18 1-35 1h-103v-7l11-37 1-2h-32l-56-2-8-1-1-1-13-90-8-63-9-82-2-36v-30l40-1 70-1 41-1z" fill="#666766"/>
<path transform="translate(1329,1240)" d="m0 0h10l2 7 2 29 1 32 2 33 1 31 2 24 1 23 1 6 2 38 2 18v30l6-16 7-15 11-23 10-19 8-16 12-16 7-9 9-11 11-13 3-4 6 1 18 18 16 11 15 9 16 8 11 5 15 6 13 4 18 5 25 6 23 5 57 9 6 2v20l-4 51 1 7 14-1h12l8 5 5 8-1 15-6 12-13 1-10-4-10-3 1 17 3 19 6 27 8 27 5 13 2 4-2 6-6 7-8 7-4 3h-16l-31-2-34-4-56-9-38-7-30-7-43-12-35-11-30-11-30-13-8-3v18h-1l-1-17-9-51-6-42-9-73-6-64-5-82-1-31v-30l16-4z" fill="#FCDBC2"/>
<path transform="translate(1441,1202)" d="m0 0h13l8 10 7 9 15 10 15 6h27l26-4 37-6 10-1h32l24 5 16 6 25 12 15 9 12 9 14 12 7 7 12 16 6 10 6 16 8 21 1 1 16 2 13 6 10 5 12 11 7 12 5 14v36l-8 34-6 21-12 37-4 10-10 16-11 20-9 10-10 13-13 16-11 13-5 6-1 3-5 2-9 11-8 10-7 9-8 9-4-1-4-5-6-18-8-28-4-19-3-19v-17l13 3 7 3h13l2-5 3-7 1-15-5-8-7-4h-12l-14 1-2-6 2-29 2-24v-20l-55-9-26-5-44-11-11-4-11-3-9-4-22-10-17-10-16-11-10-9-11-11-7-5-9-13-9-15-8-19-4-12-3-18v-43l10-39 2-2z" fill="#433222"/>
<path transform="translate(0,1019)" d="m0 0 5 2 4 10 1 8 2 6 2 13 4 16 1 9 1 1 2 10 4 19 3 18 1 1 1 9 2 6 1 9 2 6 1 9 2 6 1 9 1 1 1 9 2 9 3 15 3 13 2 10 2 14 1 2 2 15 2 10 3 9 1 7 2 5 3 13h11l72-8 15-1 1-1 61-7 14-1 2-1 103-12 14-1 3-1 14-1 11-2 14-1 12-2 14-1 11-2 26-3 13-1 12-2 23-2 12-2 14-1 2-1 128-15 14-1 12-2 25-3 14-1 3-1 14-1 12-2 25-3 13-1 21-3 76-9 14-1 2-1 23-2 2-1 147-17 14-1 11-2 61-7 14-1 2-1 35-4 14-1 2-1 77-9 16-1 2-1 55-5 35-5 12-1 11-2 14-1 2-1 60-7 14-1 1-1 24-2 2-1 182-21 15-1 3-1 14-1 11-2 88-10 14-1 2-1 24-2 2-1 36-4 13-1 13-2 44-5h16l3 12-2 84v307l-1 445h-1l-1-558v-180l-1-48-1-6v-15l-54 6-102 13-25 3-19 2-66 8-30 4-48 6-52 6-62 7-73 9-27 3-16 2-19 1-30 4-20 2-170 21-23 3-55 6-25 3-34 4-45 4-36 4-37 4-40 5-26 3-36 4-14 2-18 2-28 3-6 1-44 5-125 15-77 9-47 5-105 13-107 12-36 5-65 7-52 6-23 3-14 2-44 4h-13l-3-9-12-68-15-76-5-24-9-43-1-4-5-1z" fill="#FC8688"/>
<path transform="translate(862,1805)" d="m0 0h255l54 1 34-1h39l2 2v44l-1 78-1 22 16-10 15-10 15-9 16-9h2l-4-16-5-17v-28l1-3 9 2 19 7 26 10 30 10 14 4 30 9 46 11 40 9 42 7 15 2 10 2 36 5 15 2-2 12-2 6-11 5-16 4-30 4-42 4-21 5-25 11-21 10-24 16-13 9-13 8-18 14-8 6h-36l2-6 12-21 4-1 3 1 2-4 11-11 11-9 10-9 13-10 14-12 6-5 1-3-11-2-41-6-16-4-21-2-15 6-22 10-20 11-11 7-18 13-13 10-7 6-2 25h-1l-2-6-2-15-2-5-5-1-5-3-16-6-36-12-34-11-41-13-22-8-43-14-32-10-36-12-44-15-33-10-18-6-19-6-40-12-7-2v-52l2-1 40-1z" fill="#634B30"/>
<path transform="translate(652,1764)" d="m0 0h1l1 5 6 2 35 2 96 1 192-1h297l1 1v24l-1 4-10 3-22 3-2 1-2-3h-44l-35 1-64-1h-239l-19 1-39 1 1 6-1 45-4-1-38-2-195-2-74-2-28-1-80-1-18-1h-17l-3 1-11-1-9 1h-73l-19 1-21 3v2l-4 2-1 2h-2l-1 4-2 2-1 6h-1l-2-28-1-32-16-8-9-6-7-8-2-6v-5l5-1 171-2 117-3 1-5 1 3 103-1 35-1 16-1 2 1v-2h34z" fill="#715330"/>
<path transform="translate(803,1859)" d="m0 0 21 6 36 11 14 4 21 7 32 10 41 14 89 29 72 24 41 13 36 12 14 5 9 4 3 1v2h3l3 5 2 15 1 1 1-5 1-15 10-9 19-14 13-9 19-11 17-9 26-11 7-1 22 3 11 3 41 6 11 3-1 4-8 7-14 12-13 10-9 8-11 9-11 11-1 2h-6l-13 23-2 4-57 1h-512v-1l12-1 9-1v-160z" fill="#725431"/>
<path transform="translate(1009,831)" d="m0 0h1l1 46 29 4 1 1v316l-21 1-37 1-819-1-1-26v-21h-9v-1l788-1 66-1z" fill="#FEB5B4"/>
<path transform="translate(1041,1390)" d="m0 0h4v25l15 1-1 8-2 3 1 5 4 7v9l-2 11 5 2 3 4v9l-2 7 1 6 3 2v12l-1 8 3 2v2l4 2 10 9 5 5 14 19 7 12 8 17 6 17 3 20 1 3 1 14v21l-2 21-2 10-4 9-6 11-3 4h-2l-2 5-6 5-1 2h-3v2l-10 5-7 3-12 2-8 2h-45l-10-3-15-3-10-4-14-8-8-7-7-12-4-12-3-8-2-13-2-9v-14l2-20 6-27 7-16 4-9 3-6 2-6 3-1-2-13-7-25-5-17-8-32v-4l16-6 21-9 10-6-8-4-12-5-5-3-5-2v-2l-3-1 1-4 12-6 22-9 11-3 15-7 9-4z" fill="#FDFBFB"/>
<path transform="translate(1741,1694)" d="m0 0h2l3 3 10 5 3 5 1 9-4 16-9 23-2 7h10l15 4 3 2v18l-14 63-3 12-4 20-21 96-7 26-5 23-4 6-6 4h-91l-9-2-4-5-2-13h-49l-42 2-2 25-1 2-17 1-2-4-2-25-6-2-18-2-33-2 4-4 24-16 19-10 25-11 16-5 18-3 34-3 30-4 18-5 6-3h3l4-18 3-5 8-23 6-13 7-20 11-23 19-52 15-40 8-19 8-15 14-15 6-5 2-4z" fill="#666766"/>
<path transform="translate(1300,1849)" d="m0 0 9 2 19 7 26 10 30 10 14 4 30 9 46 11 40 9 42 7 15 2 10 2 36 5 15 2-2 12-2 6-11 5-16 4-30 4-42 4-21 5-25 11-21 10-24 16-13 9-13 8-18 14-8 6h-36l2-6 12-21 4-1 3 1 2-4 11-11 11-9 10-9 13-10 14-12 6-5 1-3-11-2-41-6-16-4-21-2-15 6-22 10-20 11-11 7-18 13-13 10-5 4h-3v-48h3l1-3 13-8 15-10 15-9 16-9h2l-4-16-5-17v-28z" fill="#433222"/>
<path transform="translate(534,1558)" d="m0 0h86l-1 44-2 42-5 53-4 22v7l-6 19-2 7v5l22 2 30 3-1 5-1 1h-30l-4-1v2l-18 1-35 1h-103v-7l11-37 1-2-4-1 6-2 8-20 12-34 29-87 8-20z" fill="#474647"/>
<path transform="translate(801,1416)" d="m0 0h7l3 2 4 30 4 37 1 23 33-11 41-15 38-15 16-4 11 44 8 27 3 12v9l-12 5-64 16-34 7-20 3h-12l5 57 3 49v27l-1 1h-8l-2-15-5-48-6-64-12-122-3-41h-33l-57-1h-195l-11-1-2 1h-16l-19-1-115 1-2 4-1 8-2 5-2-3-1-6v-17l40-1 70-1 41-1z" fill="#484647"/>
<path transform="translate(652,1764)" d="m0 0h1l1 5 6 2 35 2 77 1v1h-64v2l4-1v2l20 2h10l9 1 8 2 12 1 6 2 14 2v2l7-1 6 3h7l7 3v7h-2v3l-11 1-14 1-126 1h-199l-243 1-23 1-1 2-16-8-9-6-7-8-2-6v-5l5-1 171-2 117-3 1-5 1 3 103-1 35-1 16-1 2 1v-2h34z" fill="#866138"/>
<path transform="translate(1923,1393)" d="m0 0 5 2 10 9 22 22-2 5-10 14-10 13-12 15-8 11-7 9-20 26-26 32-11 13-9 11-13 15-9 11h-2l-2 4-9 11-9 10-8 10-12 14-12 13-8 10-12 14-3 2v-2l-8-1-9-3-8-7-5-6-1-3-4 2-6 5 2-4 8-9 11-14 9-11 5-1 1-4 13-15 11-14 13-16 9-11 5-8 8-15 7-11 11-9 16-21 12-16 16-21 14-19 16-21 10-14 10-13 9-12z" fill="#FDDBC2"/>
<path transform="translate(983,1773)" d="m0 0h297l1 1v24l-1 4-10 3-22 3-2 1-2-3h-44l-35 1-64-1h-239l-19 1h-36l4-2h5v-3h2l-1-5 1-2-7-2h-7l-7-3h-6v-2l-14-1-9-2-15-2-7-1-10-1-15-1-9-2v-2l-4 1v-2l90-1z" fill="#725431"/>
<path transform="translate(1329,1240)" d="m0 0h10l2 7 2 29 1 32 2 33 1 31 2 24 1 23 1 6 2 38 2 18v30l1 3-7 25-10 38-7 22-2 2-5-1-3-2-7-41-10-76-6-57-3-33-5-82-1-31v-30l16-4z" fill="#FDDBC2"/>
<path transform="translate(395,199)" d="m0 0h38l15 5 9 6 8 8 7 14 4 16 1 8v35l-3 19-4 11-6 11-7 6-11 7-15 6h-30l-18-6-8-4-10-11-6-10-4-11-1-4v-57l5-20 5-10 8-9 10-6z" fill="#494749"/>
<path transform="translate(1743,1769)" d="m0 0 8 1 10 3-5 26-7 34-4 17-5 26-9 41-10 45-14 58-2 3-85-1-6-2-1-4 1-1 30-2 3-7 2-9 1-9v-28l-1-9-22-3 5-19 3-5 8-23 6-13 7-20 3-6 4 5 7 8 10 6 6 2h11l3-3 11-27 8-22 13-35 10-26z" fill="#F16964"/>
<path transform="translate(1350,1938)" d="m0 0 21 2 16 4 41 6 11 3-1 4-8 7-14 12-13 10-9 8-11 9-11 11-1 2h-6l-13 23-2 4-57 1h-50l1-43 9-8 19-14 13-9 19-11 17-9 26-11z" fill="#F16964"/>
<path transform="translate(507,199)" d="m0 0h74l15 6 9 11 4 11 1 5v18l-3 9-4 10-10 7 1 6 12 30 7 25 1 10-1 1h-23l-4-6-9-24-8-23-2-3-6-1-21-1-8-1v42l-2 17h-24l-1-1v-144z" fill="#4A4749"/>
<path transform="translate(1241,199)" d="m0 0h71l12 4 8 6 7 7 3 5 2 16v9l-3 15-4 6-12 11 2 5 7 11 11 36 3 12v4h-26l-4-10-9-27-6-15-2-2h-32l-2 45-1 9-1 1-10 1h-10l-5-2v-146z" fill="#494749"/>
<path transform="translate(1041,1390)" d="m0 0h4v25l15 1-1 8-2 3 1 5 4 7v9l-2 11 5 2 3 4v9l-2 7 1 6 3 2v12l-1 9-3 3-21 7-19 10-23 13-11 4h-5l-6-7-8-21-8-25-6-29v-5l24-10 12-7-8-4-12-5-5-3-5-2v-2l-3-1 1-4 12-6 22-9 11-3 15-7 9-4z" fill="#FDDBC2"/>
<path transform="translate(898,200)" d="m0 0h31l9 15 13 27 12 27 12 25 10 18 1-111h26l1 1v132l-3 9-3 4-3 1h-26l-8-7-11-22-11-23-8-16-14-31-4-7v-2h-2l1 3-2 94-1 11h-26v-144z" fill="#484749"/>
<path transform="translate(1430,2011)" d="m0 0h15l28 2 12 2 4 2 2 25 1 4 17-2 47-1 6-1 34-1 15-1 5-3h96l7 2 33 2 64 2 44 1 173 2 7 1v-14h1v15h-2041v-2h142l41-1 19-1h18l47 1h151l875-2 93-1 18-14 14-10z" fill="#FC8688"/>
<path transform="translate(213,201)" d="m0 0h26l1 8 2 46 53 1v-23l1-31 1-1h26l1 4v143h-26l-1-1-1-7-2-57-55-2v66l-1 1h-25z" fill="#484748"/>
<path transform="translate(1178,200)" d="m0 0h27v104l-3 18-7 12-8 7-10 6-15 4h-26l-18-6-11-7-7-8-6-14-2-7v-108h27l1 19 1 67 1 18 5 14 1 2 11 3h19l12-6 3-5 2-11 1-35 1-56z" fill="#494749"/>
<path transform="translate(1421,1675)" d="m0 0h8l12 4 12 6 4 9-2 5-9 10-1 2v24l6 42 3 19 1 16-2 9-14 14-13 10-9 7-3 4-8-1-7-8-11-16-11-15 2-10 8-24 11-27 16-40v-10l-1-11h-2l1-9 2-6 4-3z" fill="#443323"/>
<path transform="translate(112,199)" d="m0 0h46l19 3 3 5v15l-3 2h-64l1 22 5 7 24 8 20 7 11 7 5 6 5 11 3 9v20l-7 14-5 5-9 6-16 4-11 1h-12l-29-3-12-3-2-5 3-10 4-4 18-1 38-1 8-6 2-6v-10l-6-7-12-5-32-11-11-9-9-9-3-7-1-5v-17l1-10 5-10 9-8 10-4z" fill="#494749"/>
<path transform="translate(816,200)" d="m0 0h44v21l-1 3-18 1h-47l1 32 56 2v22l-56 3v39l59 2 5 1v20l-5 2h-70l-11-8-7-9-1-2v-110l7-8 8-8 2-1z" fill="#494749"/>
<path transform="translate(1409,1549)" d="m0 0 24 1 18 3 29 8 22 8 20 9 10 6 2 4-2 9-8 13-13 13-8 6-15 6h-29l-24-8-16-10-7-6-6-10-2-12v-20l4-18z" fill="#FC8688"/>
<path transform="translate(1741,1694)" d="m0 0h2l3 3 10 5 3 5 1 9-4 16-9 23-4 13 4 1-4 1-13 34-13 35-9 24-8 19-3 2h-11l-10-4-8-6-8-9 1-7 7-16 11-30 19-51 10-25 9-17 14-15 6-5 2-4z" fill="#666766"/>
<path transform="translate(1508,199)" d="m0 0h44l22 3 3 1v11l-2 7-5 1-50 2-9 3-1 11 1 8 7 8 11 4 23 7 8 4 11 7 7 8 5 13 1 6v10l-2 11-4 9-5 6-7 4-12 5h-63l-7-2v-18l1-1 37-2 32-1v-22l-7-8-25-9-16-6-13-7-7-9-5-10v-27l4-10 5-8 13-8z" fill="#494749"/>
<path transform="translate(629,200)" d="m0 0h40l75 1v22l-4 1-16 1h-22l-1 82-1 39-2 1-25 1-1-33-2-89-30-1-11-1-2-4-1-17z" fill="#494748"/>
<path transform="translate(946,1463)" d="m0 0h2l11 44 8 27 3 12v9l-12 5-64 16-34 7-12 2h-19l1-6 6-7 12-6 8-3 3-1 3 1h8l7-3-1-15-11-1v-1h11l2-6 5-3 17-1 11-2 5-7 3-2 7 1 9 2-6 7-1 9 3 5 17-2v-17l-9-1 2-1v-5l3-1-1-9-3-8-5-5-4-8v-2h-10l-12 2-12 5-12 4-8 4-21 6-16 1-2-4h-2v-2l39-14 37-14 23-9z" fill="#3D3734"/>
<path transform="translate(405,221)" d="m0 0h21l7 3 8 7 5 10 2 7v50l-6 17-5 5-11 4-17 4-6-1-10-5-7-10-2-5-3-19v-24l1-14 3-10 6-9 8-7z" fill="#FDFBFA"/>
<path transform="translate(1034,1568)" d="m0 0h10l2 3 2 15 9-3h17l2 5v19l-2 7-1 1h-16l-9-10-14-4v9l10 6 11 4 12 6 7 9 3 5 2 11-8 16-9 6-9 3h-6v12h-20v-15h-27v-32l5-2 9 1 8 3 4 6 18 1-1-6-17-8-10-4-5-5-6-7-3-13 1-6 6-12 9-7 3-2 8-1-1-7z" fill="#3A3635"/>
<path transform="translate(1375,201)" d="m0 0h25l1 1 1 19 2 102 58 2 2 6v10l-2 6-21 1h-45l-7-3-10-9-4-12z" fill="#484748"/>
<path transform="translate(1745,1762)" d="m0 0h10l15 4 3 2v18l-14 63-3 12-4 20-21 96-7 26-5 23-4 6-6 4h-91l-9-2-4-5v-13h8l2 4 5 1 85 1 4-15 14-58 11-49 6-29 4-21 8-35 7-37 2-5-10-2-8-3 1-5z" fill="#413933"/>
<path transform="translate(297,449)" d="m0 0h28l11 3 5 5 4 11 2 23v18l-5 20-5 4-10 5h-32l-2-5-1-6v-72l3-5z" fill="#FDFAFA"/>
<path transform="translate(715,439)" d="m0 0h43l12 6 4 7 1 3v34l-4 7-6 5-5 2-9 1h-21l-8-1v41h-10l-1-72v-30l1-2z" fill="#413938"/>
<path transform="translate(938,448)" d="m0 0h32l9 6 6 9 4 10 1 16v26l-3 9-7 9-3 2-5 1h-34l-1-4v-83z" fill="#FDF9F9"/>
<path transform="translate(635,943)" d="m0 0h18l13 2 7 8 4 9 1 10-2 6-6 11v13l2 7 5 16v7l-10-1-10-22-2-5v-3h-27v32l-1 1h-9l-2-1v-73l2-16z" fill="#FEF8F8"/>
<path transform="translate(112,439)" d="m0 0 11 1 5 2 17 50 16 48v4h-9l-3-4-10-27h-44l-5 20-4 10-1 1h-9l1-8 17-49 12-36 4-10z" fill="#403A39"/>
<path transform="translate(315,671)" d="m0 0h16l10 5 7 8 4 10v14l-3 9-6 9-10 6-4 1h-11l-9-3-8-7-1 38h-10v-84l1-5h9v9h2l2-4 8-5z" fill="#141112"/>
<path transform="translate(822,440)" d="m0 0h11l9 21 10 29 10 28 7 24v3l-10-1-5-12-6-18v-2l-45 1-5 19-5 12-1 1-7-1 2-11 7-23 11-33 4-13 8-16z" fill="#423B39"/>
<path transform="translate(1385,1944)" d="m0 0 43 6 11 3-1 4-8 7-14 12-13 10-9 8-11 9-11 11-1 2-5-1-6-3-3-3-3-10v-30l2-17 2-4 8-2 16-1z" fill="#666766"/>
<path transform="translate(202,2044)" d="m0 0h18l47 1h978l-2 3h-1243v-2h142l41-1z" fill="#FDF2F0"/>
<path transform="translate(184,440)" d="m0 0 7 1 6 3 7 10 10 19 9 20 19 38 2 1v-53l1-37h9l2 1v93l-3 8-9 1-7-4-6-9-8-16-9-17-10-19-9-17-4-10v-2h-2l1 6v87h-10l-1-1v-81l2-17z" fill="#4B4648"/>
<path transform="translate(713,671)" d="m0 0h18l9 4 7 6 5 9 1 4v14l-4 11-8 9-9 4-4 1h-12l-9-3-8-6-6-10-1-4v-17l4-9 7-8z" fill="#131011"/>
<path transform="translate(571,671)" d="m0 0h18l9 4 5 4 6 10 2 8v10l-3 9-6 9-9 6-7 2h-12l-11-4-7-6-6-12v-18l4-10 5-6 9-5z" fill="#151212"/>
<path transform="translate(931,439)" d="m0 0h42l11 4 6 4 7 11 3 14v39l-4 15-4 8-7 7-9 4-8 2h-26l-14-4-2-2v-98zm7 9-1 1v83l1 4h34l6-2 5-5 5-7 2-7v-26l-1-16-6-14-6-7-7-4z" fill="#634D34"/>
<path transform="translate(835,671)" d="m0 0h18l10 5 8 9 3 7v19l-5 10-7 7-8 4-5 1h-11l-10-3-9-8-4-8-1-3v-19l4-9 5-6 9-5z" fill="#110F10"/>
<path transform="translate(1835,1437)" d="m0 0 3 1v7l-8 33-16 50-4 10-10 16-11 20-9 10-10 13-13 16-11 13-5 6-1 3-5 2-9 11-8 10-7 9-8 9-4-1-4-5-6-18-7-25-1-12 4 3 2 10 2 1 4 7 5 7 5 1h13l5-5 2-3h2l1-3 4-4 11-14 10-12 1-2h2l2-5 13-17 6-10 8-8 6-9 7-10 10-14 6-18 4-10 2-8 10-30 2-9 4-14z" fill="#412F24"/>
<path transform="translate(223,1808)" d="m0 0h89l11 1-2 3-6 2-9 1-2 1-17 2-6 1-20 1-13 1-4 2-15 1-16-1-3 2-3 5 1 12 33-1h88l6 1 34 1 18 1 4 2-6 1-82 1-25 1-1 1h-23l-19 1-21 3v2l-4 2-1 2h-2l-1 4-2 2-1 6h-1l-2-28-1-35z" fill="#634B30"/>
<path transform="translate(288,439)" d="m0 0h44l15 8 6 9 4 12 2 11v29l-3 12-5 12-8 8-9 4-10 2-18 1-19-3-3-4v-99zm9 10-4 3-1 3v72l2 9 1 2h32l12-6 3-3 5-20v-18l-2-23-4-11-5-5-11-3z" fill="#423128"/>
<path transform="translate(1430,2011)" d="m0 0h15l28 2 12 2 4 2 2 27-1 2h-40l-60-1-4-2 5-5 17-13 10-7z" fill="#F16964"/>
<path transform="translate(441,439)" d="m0 0h40l1 1v6l-1 1-9 1-20 1-15 4-5 5-4 5-1 3v48l3 11 5 7 4 3h12l16-4 4-2 3-43 4-3 5 1 2 2v57h-8l-3-4-7 1-10 4-3 1h-20l-8-6-7-8-5-11-1-4v-42l7-19 3-5 10-8z" fill="#4F4849"/>
<path transform="translate(419,1774)" d="m0 0h39v3l-4 2-23 2h-17l-5 1h-22l-5 1h-11l-17 1h-12l-26 1-34 1-5 1-3-1-7 1-22 1-5 1h-11l-5 1-10 1-26 3-5 3-3 3-5-1-7-7-3-8v-5l5-1 171-2z" fill="#725431"/>
<path transform="translate(447,943)" d="m0 0h40l2 1 1 9-27 2-14 4-1 2v17l21 7 8 1 2 4 10 5 5 6 1 2v16l-9 15-7 4-4 1h-21l-11-1-5-3-3-4 1-4 12-1 26-1 4-5 1-20-5-1-16-4-13-5-8-6-3-5-1-6v-9l2-9 7-10z" fill="#FEF8F7"/>
<path transform="translate(524,442)" d="m0 0h47v8l-2 1-22 1h-25l-2 35 22-1h22l1 5-1 3-6 1h-38l2 37 1 1 40 2 8 1v7l-4 2h-44l-7-2-5-5-2-14v-70l5-9 4-2z" fill="#4A484A"/>
<path transform="translate(801,1416)" d="m0 0h7l3 2 1 5v15h-1l-2-12h-2v-2l-9-1-50-1h-158l-112 1-18 1-32 1-81 1-4 2v-8l40-1 70-1 41-1z" fill="#453A31"/>
<path transform="translate(1065,1265)" d="m0 0 14 2 19 3 1 4-4 16-3 6-3 10-5 10-5 13-3 5-3 7-3 3-3 7-1 1h-7l-3-1v-23l1-24 3-16 2-16z" fill="#FDFAF9"/>
<path transform="translate(1041,1390)" d="m0 0h4v14l-2 8-5 10-15 9-18 10-7 2-9-3-14-6-5-3-5-2v-2l-3-1 1-4 12-6 22-9 11-3 15-7 9-4z" fill="#FEFBFB"/>
<path transform="translate(781,946)" d="m0 0h45v6l-1 1-39 1-4 16v8l1 4 35 1 1 1v5l-4 1-22 2-8 2v22l1 6 4 1 34 2 1 11h-41l-7-3-5-7-3-13v-46l2-10 4-8z" fill="#FDF9F8"/>
<path transform="translate(532,222)" d="m0 0h42l6 4 3 7v19l-5 9-6 3-7 2h-33z" fill="#FDFBFB"/>
<path transform="translate(1283,222)" d="m0 0h23l8 4 3 4 1 6v15l-3 9-3 3-11 3h-34v-28l1-14 1-1z" fill="#FDFAFA"/>
<path transform="translate(1155,1337)" d="m0 0h7l4 4 10 21v8l-7 3-14 4-7 3-19 4-19 1-6-3-3-3 1-7 9-7 23-14 14-10z" fill="#FEFAFA"/>
<path transform="translate(706,945)" d="m0 0h42l3 1v7l-35 1-5 3-3 7-1 17 14 3 24 1 1 1v5l-5 1h-32v30h15l24 1 4 5v4l-8 3-12 1h-18l-7-3-5-4-3-5-2-9v-59l6-10z" fill="#FEF7F7"/>
<path transform="translate(556,945)" d="m0 0h37l2 1v8h-36l-1 29 33 1 1 4-3 6h-33v39l-5 1h-8l-1-1v-71l4-12 6-4z" fill="#FEFAF9"/>
<path transform="translate(723,449)" d="m0 0h34l6 5 2 6v29l-3 3-7 3h-33v-45z" fill="#FDF9F8"/>
<path transform="translate(585,442)" d="m0 0h76l-1 8-15 2-13 1-1 3-1 22-1 45-1 21h-9l-2-6-2-86h-13l-14-1-2-1z" fill="#684D34"/>
<path transform="translate(975,1281)" d="m0 0 10 1 4 5 5 12 4 10 4 11 5 10 3 8v7l-2 1h-8l-11-9-7-7-8-7-16-16-2-5h-2l-2-4v-4l11-6 10-6z" fill="#FEF9F9"/>
<path transform="translate(1597,2042)" d="m0 0h24l11 1 2 5h-391l1-2-195-1v-1l244-1h94l3 1 100 2v-2h2v2l17-2z" fill="#FEB6B4"/>
<path transform="translate(328,945)" d="m0 0h62l2 1v9l-2 1h-24v76l-5 1h-7l-1-8-1-68-22-1-2-1-1-9z" fill="#FEF6F5"/>
<path transform="translate(138,650)" d="m0 0h10v28l9-6 3-1h17l8 5 5 6 3 10v40h-10l-1-41-5-8-7-3h-8l-7 3-5 6-1 5-1 38h-10z" fill="#111011"/>
<path transform="translate(787,945)" d="m0 0h40v8l-4 31 1 12h-22l-18-1 3-3 14-2 18-1-1-5-35-1-2-5v-8l4-16 1-1 39-1 1-6h-39z" fill="#FC8C8D"/>
<path transform="translate(839,679)" d="m0 0h11l8 5 4 5 2 5v15l-4 8-6 5-4 2h-12l-7-3-6-7-2-5v-14l4-8 7-6z" fill="#FDF9F8"/>
<path transform="translate(1605,2016)" d="m0 0h8l2 4 5 1 85 1 2-6h1v7l5-2-2 8v3l2 1-4 3h-91l-9-2-4-5z" fill="#4F4844"/>
<path transform="translate(317,679)" d="m0 0h7l9 3 6 7 2 4 1 6v8l-4 9-5 5-7 3h-12l-6-4-5-6-3-8v-8l3-9 5-6 5-3z" fill="#FDF9F9"/>
<path transform="translate(718,679)" d="m0 0h8l8 3 5 5 3 5 1 4v11l-3 8-4 5-5 3-4 1h-10l-7-3-6-7-2-6v-14l6-10 6-4z" fill="#FDFAF9"/>
<path transform="translate(574,679)" d="m0 0h12l8 5 4 5 2 4v16l-4 8-6 5-3 2h-13l-8-4-5-7-1-3v-16l4-8 6-5z" fill="#FDFAF9"/>
<path transform="translate(624,671)" d="m0 0h9l1 42 4 6 4 3 3 1h11l6-3 4-7 1-6 1-36h9l1 1v60h-10l-1-7-8 6-7 2-13-1-9-5-5-8-2-8v-39z" fill="#141313"/>
<path transform="translate(632,951)" d="m0 0h21l6 3v2l4 1 2 2v19l-5 7-2 4h-25l-7-3v-32h3v-2z" fill="#FC8889"/>
<path transform="translate(377,671)" d="m0 0h18l8 5 4 5 3 7-1 1h-10l-3-6-2-2-4-1h-9l-5 2-1 2v7l8 5 16 5 7 4 3 5v11l-4 6-5 4-6 2h-13l-9-3-5-4-4-7v-5h8l3 3 2 5 8 2 10-1 5-5v-7l-5-2-19-6-8-5-3-5v-10l4-6 6-5z" fill="#141111"/>
<path transform="translate(341,1776)" d="m0 0h80l-4 2-21 1-7 1h-18l-16 1-24 1-75 1-31 1h-32l-16 2-4 2-2 5-3-1-3-8v-5l5-1z" fill="#5F472D"/>
<path transform="translate(529,627)" d="m0 0h9l-3 15-9 37-12 48-6 23-1 1h-9l2-11 18-74 9-36z" fill="#181415"/>
<path transform="translate(475,627)" d="m0 0h9l-1 8-15 62-6 24-5 18-3 12h-9l-1-2 20-81 10-40z" fill="#141112"/>
<path transform="translate(122,441)" d="m0 0 6 1 17 50 16 48v4h-9l-3-4-10-27v-2h-39l4-2 2-4 1-1 29-1-1-8-11-30-3-9 1-4 4 7 2 1v-8l-3-4-1-3-3-2z" fill="#3F3836"/>
<path transform="translate(296,947)" d="m0 0h12l1 1v85l-1 1h-12l-1-1v-82z" fill="#FEF7F6"/>
<path transform="translate(285,454)" d="m0 0h1l1 5 5-2 1 70 2 11 32-1 12-6 2-2 5-20 4-1 1 2-3 10 4 5-1 7-8 8-9 4-10 2-18 1-19-3-2-2z" fill="#4B3831"/>
<path transform="translate(825,445)" d="m0 0 5 5 15 47v6h-37l1-6 6-22 6-16 2-10z" fill="#FDF8F7"/>
<path transform="translate(822,440)" d="m0 0h11l9 21 10 29 10 28 7 24v3l-10-1-5-12-6-18v-2h-45v-1l38-1 1-5-34-1v-1h37l-4-16-12-37-4-5v-4l-5 3z" fill="#4D4948"/>
<path transform="translate(117,442)" d="m0 0h1l5 17 9 25 5 14v5l-1 1h-33l-1-1v-8l11-36 2-7 1-9z" fill="#FDF6F6"/>
<path transform="translate(1423,1445)" d="m0 0h11v26l-5 13-6 9-4 4-9 1-3-3-2-5v-18l5-11 5-9z" fill="#3E3733"/>
<path transform="translate(1559,1492)" d="m0 0h11l1 1v22l-8 20-9 9-9-1-3-2v-21l3-9 7-13z" fill="#3D3633"/>
<path transform="translate(751,946)" d="m0 0 2 1 1 10-6 2-7 1v9l-6 9 12 3v10h-1l-1-5-24-1-14-4v-17l4-8 5-3h35z" fill="#FC8B8C"/>
<path transform="translate(211,657)" d="m0 0h11v14h14l1 1v8h-15l1 43h13l1 1v8h-16l-5-3-4-6-1-7v-36l-7-1v-7l7-1z" fill="#171415"/>
<path transform="translate(252,657)" d="m0 0h11v14h13l2 1v8h-15l1 43 14 1v8h-16l-5-3-3-3-2-9v-37h-6l-2-1 1-7 7-1z" fill="#151213"/>
<path transform="translate(509,454)" d="m0 0h1l1 39 1 2 1-3h4l3 3 2 37 1 1 40 2 8 1v7l-4 2h-44l-7-2-5-5-2-14z" fill="#4D4A4B"/>
<path transform="translate(1579,1437)" d="m0 0 10 1 22 5 9 2h10l6-1 12 2 13 2 11 3 1 4h6l2 5 2 2-1 16 1 11-1 27-1 8 2 4 13 3v2l8-1 5 5 7 8 1 3h-2v6h-1l-2-8-4-6-7-4h-12l-14 1-2-6 2-29 2-24v-20l-55-9-26-5-19-5z" fill="#483227"/>
<path transform="translate(891,440)" d="m0 0h5l2 20v84h-10v-103z" fill="#665039"/>
<path transform="translate(2044,1103)" d="m0 0h1l-2 84v307l-1 445h-1l-1-558 1-195 1-49 1-29z" fill="#FEBFB8"/>
<path transform="translate(1647,1230)" d="m0 0 8 1 16 6 25 12 15 9 12 9 14 12 7 7 12 16 6 10 6 16 7 19-1 4-3-4-3-1-3-6-4-11-8-17v-3h-2l-4-7-4-4-4-6-8-11-2-1v-2h-2l-3-3-7-4-8-7-7-5-9-4-4-2-4-4-11-5-12-6-6-1v-2l-6-1-3-1z" fill="#453326"/>
<path transform="translate(1745,1762)" d="m0 0h10l15 4 3 2v18l-6 27-4 17h-1l-1-5-4 2-2-1v-4h-2v3h-2l-1 3 1-9 7-35 2-9 1-2-10-2-8-3 1-5z" fill="#413933"/>
<path transform="translate(721,450)" d="m0 0h1v45l33-1 3-2 4 1-1 3h-2v5l1 2-9 1h-21l-8-1v41h-10v-45h2l3-10 1-5 1-30z" fill="#4C4949"/>
<path transform="translate(188,458)" d="m0 0h1l1 16v70h-10l-1-1v-81l1-3h6z" fill="#393534"/>
<path transform="translate(184,440)" d="m0 0 7 1 6 3 7 10 10 19 9 20 6 12v5l-2-1-1-3-5-5h-2l-3 2-14-27-8-16-3-9h-2l1 6v17h-1l-1-15-5 1-3-1 1-14z" fill="#403937"/>
<path transform="translate(1434,1357)" d="m0 0 6 4 11 6 2 4 5 2 7 5 11 6 9 6 16 7 9 5 32 16 9 5 3 3v3l-9-1v-2l-6-2-11-5-6-2-5-2-12-6-2-2-4-1v-2l-6-1v-2l-6-2-9-5v-2l-4-1-5-3v-2h-3v-2h-5l3 4-4-2-15-15-7-5-4-5z" fill="#3E2D24"/>
<path transform="translate(991,455)" d="m0 0 6 5 3 12v39l-4 15-4 8-7 7-3 1-1-2v-10l6-8 2-7v-26l-1-16-2-10-1-2 5-1z" fill="#4E4848"/>
<path transform="translate(202,2044)" d="m0 0h18l47 1 96 1v1l-6 1h-357v-2h142l41-1z" fill="#FDD2C1"/>
<path transform="translate(2040,2033)" d="m0 0h1v15h-322l1-3 28-1 90 1 195 1 7 1z" fill="#FEC3BB"/>
<path transform="translate(478,483)" d="m0 0 5 1 2 2v57h-8l-3-4-7 1-1 1h-6l2-4h4v-3l3-1 2-4 3-43z" fill="#3E3837"/>
<path transform="translate(1335,1939)" d="m0 0h3l1 4-26 12-20 11-11 7-18 13-13 10-5 4-3-1 1-1v-9l6-2 11-8 3-1v-2l9-6h2v-2l7-4h2v-2l26-13 9-3h4v-2l11-3z" fill="#443226"/>
<path transform="translate(353,459)" d="m0 0 2 3 3 11 1 6v29l-3 12-3 8-6-8 3-11h-3l-2-34-1-10 1 2h2v-2h3v-2h2z" fill="#3F3837"/>
<path transform="translate(1353,1509)" d="m0 0 3 2-2 9-13 50-9 29-2 2-5-1-3-2v-18h7l8-25 12-36z" fill="#FEB4B3"/>
<path transform="translate(849,946)" d="m0 0h9l1 1v59l-1 1h-6l-3-8-1-8-1-20v-24z" fill="#FDF6F2"/>
<path transform="translate(1049,2044)" d="m0 0h309l-2 4h-113l1-2-195-1z" fill="#FDD3BF"/>
<path transform="translate(1489,2014)" d="m0 0 20 1 2 1v19l-2 10-17 1-2-4-1-14z" fill="#4A4748"/>
<path transform="translate(1057,1583)" d="m0 0h17l2 5v19l-2 7-1 1h-16l-6-7 1-5 5-5 2-6-1-5z" fill="#3D3938"/>
<path transform="translate(790,671)" d="m0 0h10v61h-10z" fill="#191718"/>
<path transform="translate(630,201)" d="m0 0h114v7l-2 1-3-1-77-2-27-1h-5l-1-3z" fill="#393534"/>
<path transform="translate(285,454)" d="m0 0h1l1 5 5-2 1 70 1 10h-5l-1 4-3-1z" fill="#3C3735"/>
<path transform="translate(1460,1383)" d="m0 0 6 1v2h3l3 3 6 3 1 2 14 7v2l6 1v2l5 1 8 5 4 1 3 2 9 3 17 8v2l13 1 14 4-1 4-8-1-20-6-13-4-9-4-22-10-17-10-16-11-3-3z" fill="#3F3632"/>
<path transform="translate(441,439)" d="m0 0h40l1 1v6l-1 1-9 1-20 1-15 4-5 5h-3l-3-5h-2l-3 2 2-5 10-8z" fill="#544B4B"/>
<path transform="translate(769,446)" d="m0 0h2l4 9v34l-4 7-6 5-7 1 1-6h2l1-5h2v-31l-1-7 3-2v-2h2z" fill="#3C3736"/>
<path transform="translate(1793,1558)" d="m0 0 4 1-8 15-9 10-10 13-13 16-11 13-6 7-3-1 1-4 7-11 8-9 9-11 8-11 9-11 4-5 1-2h2l2-5z" fill="#3D3733"/>
<path transform="translate(1753,1822)" d="m0 0h2v4l7-2v11l-6 26-1 7-9 2h-3l-1 2v-5l2-2 3-18 1-14 1-5h2v-3h2z" fill="#3F3834"/>
<path transform="translate(816,200)" d="m0 0h31l5 1 4 1h3v2l-4 3-1 3h-19l-6-2-13-1h-23l-5-1-4 1-5-1 1-3 2-1z" fill="#3C3837"/>
<path transform="translate(1293,2043)" d="m0 0h94l3 1 100 2v-2h2v2h5v1l-5 1h-136l1-3-64-1z" fill="#FEB5B4"/>
<path transform="translate(1735,1633)" d="m0 0 1 3-10 12-8 10-7 9-8 9-4-1-4-5-6-18-1-6 5-1 2 2 3 9 3 1v2l5-1 6-3h2v-2h2l2-4h2l1-2h4l1-5 2-1 1-3h2l1-3h3z" fill="#3B3532"/>
<path transform="translate(288,439)" d="m0 0h44v1h-23l2 6 12 2v1l-26 1-3 2-2 5-5 2-1 4-1 77h-1v-99z" fill="#4F4C4C"/>
<path transform="translate(253,443)" d="m0 0h1v47l-1 23-2 4-2 5-4 1v-34h2l1-7v-21l1-10h2l1-6z" fill="#3D2D24"/>
<path transform="translate(201,1845)" d="m0 0 1 2 8-1h44l9 1 1 1 7-1 6 1v2h-23l-19 1-21 3v2l-4 2-1 2h-2l-1 4-2 2-1 6h-1l-1-14z" fill="#725431"/>
<path transform="translate(424,451)" d="m0 0 5 5 1 4-4 9-1 3-1 18-2 5-4 3h-3l-1-7v-20l6-16z" fill="#3B3635"/>
<path transform="translate(179,207)" d="m0 0h1v15l-3 2h-63l5-4 12-3h48z" fill="#706766"/>
<path transform="translate(1579,1437)" d="m0 0 10 1 22 5 9 2h10l6-1 12 2 13 2 11 3 1 4 4 1h-11l-56-9-30-7-3-2z" fill="#402E24"/>
<path transform="translate(1423,1445)" d="m0 0h8v1l-7 1 1 3 3 3-1 7-5 8-11 8-1 5h-2l-1 11-2-2v-18l5-11 5-9z" fill="#4D3828"/>
<path transform="translate(715,439)" d="m0 0h43l12 6-2 4h-2l1 3-5 2-5-4h-35l2-4 4-2v-2h10l6-1-29-1z" fill="#4E3F32"/>
<path transform="translate(179,462)" d="m0 0h1l1 73 2 2 1-31 3-12 2-1v-10h1v61h-10l-1-1z" fill="#545253"/>
<path transform="translate(652,1764)" d="m0 0h1l1 8-44 1-119-1v-1l72-1 35-1 16-1 2 1v-2h34z" fill="#694E30"/>
<path transform="translate(945,1526)" d="m0 0 3 1 1 2v15l-7 2-11 1-4-6 1-9 5-5z" fill="#FDF7F6"/>
<path transform="translate(896,1537)" d="m0 0h14l4 6-1 9-6 5h-11l-4-6 1-9z" fill="#FDF7F6"/>
<path transform="translate(1807,1361)" d="m0 0 7 1 9 7 7 8 7 14 1 3v10l-5-1-8-17-6-9-3-4v-2h-2l-7-9z" fill="#423025"/>
<path transform="translate(1398,2033)" d="m0 0 2 1 4 7 4 1 26 1h40l17-1-1 4h-40l-60-1-4-2 5-5z" fill="#FB8587"/>
<path transform="translate(863,1545)" d="m0 0h13l2 8v7l-5 3-3 1h-8l-5-6v-8l4-4z" fill="#FDF8F7"/>
<path transform="translate(112,439)" d="m0 0 11 1-1 3 3 2 3 6 1 3-1 6-4-2-2-5h-2l-3-10-2 12-2 4-2-6v6h-2l1 4-1 2h-2l-1 4-5 5-3 2 3-11 9-24z" fill="#473731"/>
<path transform="translate(991,455)" d="m0 0 6 5 1 14h1v7l-2 11-2 9-4 5-2-30-2-6-1-7-1-2 5-1z" fill="#433324"/>
<path transform="translate(805,499)" d="m0 0 2 1 1 3 35 1-2 6 3 1h-41v2l-5-2 1-6 2-3v2h2z" fill="#3D2E25"/>
<path transform="translate(245,442)" d="m0 0h9l-4 10-1 15v20l-2 5h-1v30l3-3 2-5h1v9l-2 6-5 1-1-2v-49z" fill="#47403F"/>
<path transform="translate(542,486)" d="m0 0h22l1 5-1 3h-43v-6z" fill="#3D2D25"/>
<path transform="translate(590,442)" d="m0 0h71l-1 8-15 2-14 1v-8l1-1-42-1z" fill="#6B6766"/>
<path transform="translate(701,227)" d="m0 0 1 2-1 78-1 39h-1l-1-11-1-30-1-5 1-6v-8l-1-3h2l-1-4 1-12v-36z" fill="#6C6866"/>
<path transform="translate(1047,1584)" d="m0 0 1 2 9-2 3 5-1 8-4 4h-2l-2 6-6-3-10-3 4-2 4-10h2z" fill="#4B4749"/>
<path transform="translate(1756,1794)" d="m0 0h1l1 12 6 1 4-1-2 10-3 14h-1l-1-5-4 2-2-1v-4h-2v3h-2l-1 3 1-9z" fill="#524A44"/>
<path transform="translate(777,1776)" d="m0 0h121l-4 2h-20l-18 1-8 1-5-1-8 1-5-1-16 1-5-1-8-1h-24z" fill="#634B30"/>
<path transform="translate(595,946)" d="m0 0 4 5v8l-1 1h-32l-7-1v23l17 1v1h-13l-5-1v-26l1-3h36z" fill="#FC9293"/>
<path transform="translate(1431,1445)" d="m0 0h2v22l-3-1-3 3h-2l-1 3h-2l-2 4-7 6-1 2h-2l-2 9h-1v-9l1-3h2l-1-3 5-5 9-7 4-8v-7l-4-2 1-3z" fill="#3D2D24"/>
<path transform="translate(1747,1837)" d="m0 0h1v10l-3 18-2 5 11-2-1 8-4 18-1-3h-5l-1-2 3-8v-3l-4-1v3h-2l2-16 5-22z" fill="#504944"/>
<path transform="translate(798,511)" d="m0 0 4 2-2 12-5 15-3 5-7-1 2-11 4-12 4-3h2z" fill="#3F3937"/>
<path transform="translate(292,536)" d="m0 0h3v2h26v1l-13 1h9l7 1 4 1-4 2v2l-18 1-19-3-2-4h3l1-3z" fill="#52382A"/>
<path transform="translate(524,442)" d="m0 0h47v8l-2 1-22 1h-24l3-2h26l-3-3-2-1-1-2-22-1z" fill="#706665"/>
<path transform="translate(608,1760)" d="m0 0h27l17 2-1 5-1 1h-25l-10-3-7-4z" fill="#483524"/>
<path transform="translate(1027,1579)" d="m0 0h2l2 3 7 3-2 1v2l-11 3-7-1-3 2-2 3v-2l-2 2-1 3-2-1v2l-4 2 2-7 4-6 8-6 3-2z" fill="#4C484A"/>
<path transform="translate(408,947)" d="m0 0h8l1 1v25h-6l-2-2-2-13v-9z" fill="#FDF5F3"/>
<path transform="translate(1137,339)" d="m0 0 5 1v2l6 1v2h4v2l8 1 2 3h-26l-7-2v-2l-2-1 1-3 5-2z" fill="#666665"/>
<path transform="translate(1431,2006)" d="m0 0h4l-2 4-20 12-15 12-3 1 1-5 4-6 6-5 6-2 11-8z" fill="#463326"/>
<path transform="translate(545,536)" d="m0 0h26v7l-1 1h-29l3-3z" fill="#3A3635"/>
<path transform="translate(1351,1939)" d="m0 0h13l15 3 6 2-3 2-16 1-10 2h-5z" fill="#FA8485"/>
<path transform="translate(1033,1610)" d="m0 0 13 7 9 3 12 6v2l-4-1v-2h-3l-2 5h-8l-7-5-2-6-5-2-2-4z" fill="#4E4A4C"/>
<path transform="translate(896,508)" d="m0 0h1v36h-7l-1-1v-19h3l1-7z" fill="#474648"/>
<path transform="translate(1e3 1639)" d="m0 0 9 1 8 3 4 6 17 1v1h-18l-4-3-5 1-1 3-5-1-1-7h-2v-2l-4 2-1 8-1 21h-1v-32z" fill="#4F4C4D"/>
<path transform="translate(1488,332)" d="m0 0 5 1 1 6v7l60 1v1h-63l-7-2v-9l2-4z" fill="#686766"/>
<path transform="translate(1579,1437)" d="m0 0 10 1 22 5 25 5 11 2-1 2-12-1-29-5-28-7z" fill="#523E36"/>
<path transform="translate(111,448)" d="m0 0h1l1 15-9 28h-4l1-7 2-4-4 4-1-5 1-4 4-4h2l2-6h2v-6h2l-1-6z" fill="#433427"/>
<path transform="translate(184,440)" d="m0 0 7 1 5 2v1l-5 1v6h-2l1 6v17h-1l-1-15-5 1-3-1 1-14z" fill="#473F3E"/>
<path transform="translate(744,441)" d="m0 0h8v3h-2l2 5-30 1 2-4 4-2v-2h10z" fill="#604B4A"/>
<path transform="translate(983,444)" d="m0 0 5 1 7 9 2 6-5-3-3 5h-3l1 1v5l-2-3-6-10v-2l3-3v-5z" fill="#4F4747"/>
<path transform="translate(323,205)" d="m0 0h1v143h-26v-1h25v-5h-2v-5-2-4h2z" fill="#686866"/>
<path transform="translate(309,440)" d="m0 0h23l1 7-2 2v1h-6l-5-2-10-1z" fill="#443323"/>
<path transform="translate(290,457)" d="m0 0h2v32h-1l-2 19h-1l-1-18 1-12-2-1v-14l1-4z" fill="#423222"/>
<path transform="translate(254,443)" d="m0 0h2v93h-1l-1-7-1-69z" fill="#614B34"/>
<path transform="translate(1614,2015)" d="m0 0h30l-3 6h-26l-2-5z" fill="#FB8384"/>
<path transform="translate(1457,1210)" d="m0 0 4 1 8 10 15 10 9 4v1l-6 1-8-2-1-3-4-1-3-2v-2h-2l-9-9v-2h-2z" fill="#4A3627"/>
<path transform="translate(1020,2040)" d="m0 0 13 2 1-2v2l16-1 3-1v2h14v1l-44 1h-54v-1h23v-2h20z" fill="#634B30"/>
<path transform="translate(1365,2015)" d="m0 0 1 3-1 5h-2l-1 6-2 8 1 4 25 1v1h-36l2-6 12-21z" fill="#4E3B2A"/>
<path transform="translate(531,1561)" d="m0 0h2l-2 9-10 29-9 24h-1l1-9 14-41z" fill="#3C3838"/>
<path transform="translate(1396,345)" d="m0 0h66v2l-21 1h-45z" fill="#706866"/>
<path transform="translate(303,1847)" d="m0 0h64v1l-17 1-3 1-11-1-9 1h-49v-2z" fill="#725431"/>
<path transform="translate(794,647)" d="m0 0 4 1 4 4v6l-4 3h-7l-3-5 1-5z" fill="#191515"/>
<path transform="translate(630,211)" d="m0 0h2l1 6 7 1 4 3 5 1v2h18v1h-27l-11-1-2-4v-5l2 2z" fill="#6B6766"/>
<path transform="translate(423,673)" d="m0 0h7l3 4v6l-4 3-7-1-2-2v-7z" fill="#1B1617"/>
<path transform="translate(1510,2045)" d="m0 0h45v2l-28 1h-35v-1z" fill="#FDE2CF"/>
<path transform="translate(804,2040)" d="m0 0 18 2h49l3 1 1-2 3 1 21 1v1h-95z" fill="#634B30"/>
<path transform="translate(766,720)" d="m0 0h8l2 3v7l-3 2h-7l-3-4v-5z" fill="#1A1515"/>
<path transform="translate(854,527)" d="m0 0 4 5 4 1 4-2 3 11v3l-10-1-5-12z" fill="#463D3B"/>
<path transform="translate(1044,1416)" d="m0 0h16l-1 8-5 1-10-1-1-1v-6z" fill="#FDF7F4"/>
<path transform="translate(423,720)" d="m0 0h7l3 4v5l-3 3h-8l-2-3v-6z" fill="#131112"/>
<path transform="translate(436,538)" d="m0 0 7 1h14l-3 6h-20l-3-2 1-3z" fill="#44372D"/>
<path transform="translate(927,504)" d="m0 0 3 4 1 7h-2l1 22 1 4h2v2h-5l-2-2v-35z" fill="#494645"/>
<path transform="translate(1765,1319)" d="m0 0 2 1v2h2l3 5 4 10 2 3 1 8 1 2-3 1-3-4-9-24z" fill="#FA8384"/>
<path transform="translate(332,440)" d="m0 0 6 2 8 4-2 6-6 2-8-3 1-4v-4z" fill="#4E4949"/>
<path transform="translate(404,344)" d="m0 0 13 1v2h6l1 2 7 1v1h-30l1-6z" fill="#686866"/>
<path transform="translate(998,474)" d="m0 0h1v7l-2 11-2 9-4 5v-20l2-2 1 1 1-9z" fill="#393433"/>
<path transform="translate(722,440)" d="m0 0h28v1l-13 2h-7l-2-1v2l-5 4-4 5-1 5h-1v-7l2-9z" fill="#433222"/>
<path transform="translate(112,439)" d="m0 0 11 1-1 3 3 2 3 6 1 3-1 6-4-2-2-5h-2l-3-10z" fill="#504A4B"/>
<path transform="translate(252,461)" d="m0 0h1l1 6v23l-1 23-3 2 1-40v-8z" fill="#423222"/>
<path transform="translate(618,520)" d="m0 0h1l1 14h6l1-5h1v15h-9l-1-1z" fill="#494749"/>
<path transform="translate(356,468)" d="m0 0h1l2 11v29l-1 5-2-4-1-28z" fill="#5B5151"/>
<path transform="translate(812,468)" d="m0 0 4 2-1 8-3 12h-4l-2 2v-6l4-13z" fill="#484648"/>
<path transform="translate(1392,2032)" d="m0 0h3l-1 5-7 5h-30l4-2 16-1 11-3z" fill="#413025"/>
<path transform="translate(541,445)" d="m0 0h7l4 2v3l-26 1-3 1-2 2 1-4 2-3 13-1z" fill="#634B30"/>
<path transform="translate(1414,1211)" d="m0 0 2 4v10l-2 4-2 9-1 2-4 1 2-11z" fill="#4B3727"/>
<path transform="translate(853,1022)" d="m0 0 6 1v9l-1 1h-9l-1-1v-6l3-3z" fill="#FDF3F0"/>
<path transform="translate(292,536)" d="m0 0h3v2h26v1l-24 1v2l4 1v2h-8l-7-2-1-3h3l1-3z" fill="#5C5051"/>
<path transform="translate(1e3 1601)" d="m0 0 2 2 1 9 3 3 4 7 2 6-3 1-8-11-2-14z" fill="#524B4C"/>
<path transform="translate(348,508)" d="m0 0 3 1-3 11 4 5v3l-7 1-2-1 1-5 1-10 1-4z" fill="#433129"/>
<path transform="translate(190,444)" d="m0 0h7l4 5 1 5-3 1-3-1-3 1-2-2z" fill="#413028"/>
<path transform="translate(833,504)" d="m0 0h10l-2 6 3 1h-13l-6-1 4-2 1-3z" fill="#393534"/>
<path transform="translate(382,1776)" d="m0 0h39l-4 2-21 1-7 1-7-2z" fill="#624A2F"/>
<path transform="translate(1413,1319)" d="m0 0 3 1 5 12 5 9 3 6-1 4-8-13-7-16z" fill="#503A29"/>
<path transform="translate(509,454)" d="m0 0h1l1 39 3 5v2h-3l-1 24h-1z" fill="#6F6866"/>
<path transform="translate(769,446)" d="m0 0h2l3 6-1 7-5-2-4 1-1-5 3-2v-2h2z" fill="#42312A"/>
<path transform="translate(109,325)" d="m0 0h37v1l-23 1-2 2-30-2v-1z" fill="#7E6866"/>
<path transform="translate(285,454)" d="m0 0h1v23l3 1-1 19-2-1-1-4z" fill="#3A3432"/>
<path transform="translate(1022,1629)" d="m0 0 5 1 4 2v2h2l4 4v2l-9-3-10-4 1-3z" fill="#4E494B"/>
<path transform="translate(244,511)" d="m0 0h1l1 11 3-3 2-5h1v9l-2 6-5 1-1-2z" fill="#3B3837"/>
<path transform="translate(942,536)" d="m0 0h27l-1 4-4 1h-8v-2h-4v-2h-10z" fill="#955B43"/>
<path transform="translate(542,486)" d="m0 0h22l1 5-1 3h-6l-1-4 1-2-16-1z" fill="#5E4645"/>
<path transform="translate(201,1810)" d="m0 0h48v1l-25 1h-11l-12 1z" fill="#433222"/>
<path transform="translate(296,444)" d="m0 0 5 2 19 1 3 2-26 1-3 1-1-3 1-3z" fill="#815440"/>
<path transform="translate(1747,1837)" d="m0 0h1v10l-3 18-2 3h-2l1-7z" fill="#5D4E3F"/>
<path transform="translate(100,495)" d="m0 0h2l1 8 4 2-2 3 1 1v1h-5l-2-6-3-2 1-4z" fill="#504848"/>
<path transform="translate(290,474)" d="m0 0 2 2v13h-1l-2 19h-1l-1-18z" fill="#3E2D23"/>
<path transform="translate(832,1679)" d="m0 0 2 1v22h-2l-3-7 2-10z" fill="#3A3636"/>
<path transform="translate(1418,1676)" d="m0 0h5v5h-3l-1 3h-3v7l-2 1v-13z" fill="#3F3028"/>
<path transform="translate(188,458)" d="m0 0 1 2-2 11h-2l-1 2-1-1-2-13z" fill="#3D2D25"/>
<path transform="translate(345,447)" d="m0 0 4 2 1 3-2 1-2 5-5 1-2-6 4-3z" fill="#44392F"/>
<path transform="translate(107,475)" d="m0 0 1 4-4 12h-4l1-7 2-4 1-4z" fill="#463729"/>
<path transform="translate(1e3 1639)" d="m0 0h5l-5 4-2 1-1 8-1 21h-1v-32z" fill="#4B484A"/>
<path transform="translate(521,488)" d="m0 0h9l2 6h-11z" fill="#393534"/>
<path transform="translate(472,635)" d="m0 0 2 3-2 10-1 4h-2l1 4-3 8-2 4 1-9z" fill="#514443"/>
<path transform="translate(513,492)" d="m0 0h4l3 3v13h-1l-1-5-5-5z" fill="#63523D"/>
<path transform="translate(321,538)" d="m0 0h8l-4 4h-6l-2-1h-13l-5-1v-1z" fill="#403026"/>
<path transform="translate(122,441)" d="m0 0 6 1 4 11v2l-4-2-4-8-3-2z" fill="#463A36"/>
<path transform="translate(1674,1569)" d="m0 0 7 2 2 3-5 3-3 4-1-4z" fill="#3F2E25"/>
<path transform="translate(798,505)" d="m0 0 1 2-2 11-6 3 3-11z" fill="#4D3C38"/>
<path transform="translate(137,500)" d="m0 0h1v8l-7 1-1-3-14-1v-1l20-1z" fill="#4F494A"/>
<path transform="translate(1278,1929)" d="m0 0 2 1-4 5-6 2v2l-6 2v-3z" fill="#523C29"/>
<path transform="translate(1605,2016)" d="m0 0h8l1 6-8 1-1-1z" fill="#3C3836"/>
<path transform="translate(722,440)" d="m0 0h5l-1 2-4 1-1 8-2 2-1 5h-1v-7l2-9z" fill="#3D2D24"/>
<path transform="translate(847,200)" d="m0 0h13v21h-1v-19l-9 1z" fill="#965655"/>
<path transform="translate(285,440)" d="m0 0h14v1l-8 1-6 9z" fill="#433324"/>
<path transform="translate(896,201)" d="m0 0h16v1h-10v2l-5 3h-4l2-4z" fill="#3A3635"/>
<path transform="translate(1745,1762)" d="m0 0h10l9 2v1h-19v3h-2l1-5z" fill="#5B4D40"/>
<path transform="translate(1705,1537)" d="m0 0 5 1 6 7 1 3h-2v6h-1l-2-8-4-6z" fill="#533D2A"/>
<path transform="translate(1261,328)" d="m0 0 2 2 1 10-2 2-3-1 1-10z" fill="#666867"/>
<path transform="translate(1741,1694)" d="m0 0h2l3 3 6 3-3 1-7-1h-4l1-5z" fill="#735337"/>
<path transform="translate(987,531)" d="m0 0 4 1-1 4-4 4h-3l1-5 1-3z" fill="#453627"/>
<path transform="translate(1629,1448)" d="m0 0 14 1 4 2-1 1-12-1-6-1z" fill="#5F4338"/>
<path transform="translate(1540,1236)" d="m0 0h11l-4 3-9 1-2-1v-2z" fill="#3E2D23"/>
<path transform="translate(115,443)" d="m0 0h1v9l-2 7-2-3v-8z" fill="#504A49"/>
<path transform="translate(1735,1633)" d="m0 0 1 3-9 11-2-3 3-3 1-3h2l1-3h3z" fill="#423831"/>
<path transform="translate(1442,1203)" d="m0 0h11l3 2-1 4h-2v-2l-8-2-3-1z" fill="#422F24"/>
<path transform="translate(942,1545)" d="m0 0h5l-3 6h-4l-1-4h-5v-1z" fill="#5A4E4E"/>
<path transform="translate(107,504)" d="m0 0h9v2l-10 4-2-1 2-4z" fill="#433222"/>
<path transform="translate(103,471)" d="m0 0 1 4-4 9-2-1v-4l1-4z" fill="#3D2E26"/>
<path transform="translate(416,520)" d="m0 0h2l4 10 3 3-4 1-5-9z" fill="#403E3D"/>
<path transform="translate(595,946)" d="m0 0 4 5v8l-3-3-4-1 3-1z" fill="#FB8385"/>
<path transform="translate(1649,1451)" d="m0 0 11 1 5 2v1l-11-1-7-1z" fill="#6A463A"/>
<path transform="translate(1413,1319)" d="m0 0 3 1 3 7v7l-2-2-4-10z" fill="#553E2A"/>
<path transform="translate(968,1542)" d="m0 0 2 4v9l-4-2 1-7z" fill="#4E4C4D"/>
<path transform="translate(997,462)" d="m0 0 2 4 1 6v9l-3-4z" fill="#61504B"/>
<path transform="translate(1241,2030)" d="m0 0h1l1 11-5 1 1-7z" fill="#634B30"/>
<path transform="translate(347,527)" d="m0 0 5 1-2 5-3 2-2-6h2z" fill="#3E3A39"/>
<path transform="translate(1623,1226)" d="m0 0h8l6 1v1l-5 1h-7l-4-2z" fill="#573F2A"/>
<path transform="translate(475,627)" d="m0 0h9l-1 8h-1v-6l-6-1-1 5-2 2 1-7z" fill="#4E4848"/>
<path transform="translate(92,512)" d="m0 0 3 1-2 8-3 2-1-6z" fill="#4D4C4E"/>
<path transform="translate(979,1435)" d="m0 0 13 5 4 4-6-1v-2l-9-3-2-1z" fill="#FC9495"/>
<path transform="translate(111,440)" d="m0 0 5 1-2 5-2 2-1-1z" fill="#423223"/>
<path transform="translate(1365,2015)" d="m0 0 1 3-1 5-5 2 2-6z" fill="#4B3828"/>
<path transform="translate(1421,1491)" d="m0 0h2l-2 4-2 2h-8l3-2 6-3z" fill="#1E1712"/>
<path transform="translate(1453,1376)" d="m0 0 5 4 6 8-4-2-7-7z" fill="#2C2521"/>
<path transform="translate(1825,1372)" d="m0 0 5 5 2 5-2 1-4-6z" fill="#4F4031"/>
<path transform="translate(823,441)" d="m0 0h2v5h-3v2l-3-1v-3z" fill="#463228"/>
</svg>
